<mxfile host="" modified="2020-06-30T14:56:44.629Z" agent="5.0 (Windows NT 10.0; Win64; x64) AppleWebKit/537.36 (KHTML, like Gecko) Code/1.45.1 Chrome/78.0.3904.130 Electron/7.2.4 Safari/537.36" etag="NWCzrGMiwRwiLHscsJ7n" version="13.1.3">
    <diagram id="6hGFLwfOUW9BJ-s0fimq" name="Page-1">
        <mxGraphModel dx="1068" dy="1792" grid="1" gridSize="10" guides="1" tooltips="1" connect="1" arrows="1" fold="1" page="1" pageScale="1" pageWidth="827" pageHeight="1169" math="0" shadow="0">
            <root>
                <mxCell id="0"/>
                <mxCell id="1" parent="0"/>
                <mxCell id="2" value="客户端A" style="rounded=0;whiteSpace=wrap;html=1;" vertex="1" parent="1">
                    <mxGeometry x="100" y="-1160" width="120" height="60" as="geometry"/>
                </mxCell>
                <mxCell id="3" value="服务器B&lt;br&gt;" style="rounded=0;whiteSpace=wrap;html=1;" vertex="1" parent="1">
                    <mxGeometry x="540" y="-1160" width="120" height="60" as="geometry"/>
                </mxCell>
                <mxCell id="4" value="" style="endArrow=none;html=1;entryX=0.5;entryY=1;entryDx=0;entryDy=0;" edge="1" parent="1" target="2">
                    <mxGeometry width="50" height="50" relative="1" as="geometry">
                        <mxPoint x="160" y="-600" as="sourcePoint"/>
                        <mxPoint x="450" y="-890" as="targetPoint"/>
                    </mxGeometry>
                </mxCell>
                <mxCell id="6" value="" style="endArrow=none;html=1;entryX=0.5;entryY=1;entryDx=0;entryDy=0;" edge="1" parent="1" target="3">
                    <mxGeometry width="50" height="50" relative="1" as="geometry">
                        <mxPoint x="600" y="-600" as="sourcePoint"/>
                        <mxPoint x="640" y="-1020" as="targetPoint"/>
                    </mxGeometry>
                </mxCell>
                <mxCell id="7" value="" style="endArrow=classic;html=1;" edge="1" parent="1">
                    <mxGeometry width="50" height="50" relative="1" as="geometry">
                        <mxPoint x="160" y="-1050" as="sourcePoint"/>
                        <mxPoint x="600" y="-980" as="targetPoint"/>
                    </mxGeometry>
                </mxCell>
                <mxCell id="8" value="SYN = 1,seq=x" style="text;html=1;strokeColor=none;fillColor=none;align=center;verticalAlign=middle;whiteSpace=wrap;rounded=0;rotation=10;" vertex="1" parent="1">
                    <mxGeometry x="240" y="-1050" width="270" height="20" as="geometry"/>
                </mxCell>
                <mxCell id="9" value="" style="endArrow=classic;html=1;" edge="1" parent="1">
                    <mxGeometry width="50" height="50" relative="1" as="geometry">
                        <mxPoint x="600" y="-970" as="sourcePoint"/>
                        <mxPoint x="160" y="-820" as="targetPoint"/>
                    </mxGeometry>
                </mxCell>
                <mxCell id="10" value="ACK = 1,SYN=1,seq =y,ack=y+1" style="text;html=1;strokeColor=none;fillColor=none;align=center;verticalAlign=middle;whiteSpace=wrap;rounded=0;rotation=-17;" vertex="1" parent="1">
                    <mxGeometry x="160" y="-910" width="330" height="20" as="geometry"/>
                </mxCell>
                <mxCell id="11" value="" style="endArrow=classic;html=1;" edge="1" parent="1">
                    <mxGeometry width="50" height="50" relative="1" as="geometry">
                        <mxPoint x="160" y="-820" as="sourcePoint"/>
                        <mxPoint x="600" y="-660" as="targetPoint"/>
                    </mxGeometry>
                </mxCell>
                <mxCell id="12" value="ACK =1,seq =x+1,ack=y+1" style="text;html=1;strokeColor=none;fillColor=none;align=center;verticalAlign=middle;whiteSpace=wrap;rounded=0;rotation=20;" vertex="1" parent="1">
                    <mxGeometry x="240" y="-770" width="290" height="20" as="geometry"/>
                </mxCell>
                <mxCell id="13" value="&lt;h1&gt;&lt;font color=&quot;#ffffff&quot;&gt;三次握手原因：&lt;/font&gt;&lt;/h1&gt;&lt;div&gt;&lt;font color=&quot;#ffffff&quot;&gt;防止已经失效的客户端报文突然又传送到服务器，导致错误&lt;/font&gt;&lt;/div&gt;" style="text;html=1;strokeColor=none;fillColor=none;spacing=5;spacingTop=-20;whiteSpace=wrap;overflow=hidden;rounded=0;" vertex="1" parent="1">
                    <mxGeometry x="190" y="-680" width="370" height="120" as="geometry"/>
                </mxCell>
                <mxCell id="14" value="&lt;h1 style=&quot;font-size: 14px&quot;&gt;&lt;font style=&quot;font-size: 14px ; font-weight: normal&quot;&gt;假定出现异常情况，A发送的第一个连接报文没有丢失，而是在某些网络节点长时间滞留了，以致延迟到连接释放以后的某个时间才到达B.&lt;/font&gt;&lt;/h1&gt;&lt;div style=&quot;font-size: 14px&quot;&gt;&lt;font style=&quot;font-size: 14px&quot;&gt;本来这是一个早已失效的报文，但B收到此失效的连接请求报文后，就误认为是A又发出了一次新的连接请求。于是向A发出确认报文，同意建立连接。假定不采用三次握手，那么只要B发出确认，新的连接就建立了。&lt;/font&gt;&lt;/div&gt;&lt;div style=&quot;font-size: 14px&quot;&gt;&lt;font style=&quot;font-size: 14px&quot;&gt;&lt;br&gt;&lt;/font&gt;&lt;/div&gt;&lt;div style=&quot;font-size: 14px&quot;&gt;&lt;font style=&quot;font-size: 14px&quot;&gt;由于A并没有发出新的连接请求，因此不会理会B的确认，也不会向B发送数据。但B却以为新的连接运输连接已经建立了，并一直等待A发来数据。B的许多资源就这样白白浪费了。&lt;/font&gt;&lt;/div&gt;" style="text;html=1;strokeColor=none;fillColor=none;spacing=5;spacingTop=-20;whiteSpace=wrap;overflow=hidden;rounded=0;" vertex="1" parent="1">
                    <mxGeometry x="50" y="-540" width="650" height="120" as="geometry"/>
                </mxCell>
            </root>
        </mxGraphModel>
    </diagram>
</mxfile>